<svg width="28" height="24" fill="none" xmlns="http://www.w3.org/2000/svg">
  <path d="M9 0a1 1 0 00-.832.445L6.465 3H3a3 3 0 00-3 3v11a3 3 0 003 3h12a1 1 0 100-2H3a1 1 0 01-1-1V6a1 1 0 011-1h4a1 1 0 00.832-.445L9.535 2h4.93l1.703 2.555A1 1 0 0017 5h4a1 1 0 011 1v5a1 1 0 102 0V6a3 3 0 00-3-3h-3.465L15.832.445A1 1 0 0015 0H9z" fill="#570"/>
  <path fill-rule="evenodd" clip-rule="evenodd" d="M12 6a5 5 0 100 10 5 5 0 000-10zm-3 5a3 3 0 116 0 3 3 0 01-6 0z" fill="#570"/>
  <path d="M23 14a1 1 0 011 1v3h3a1 1 0 110 2h-3v3a1 1 0 11-2 0v-3h-3a1 1 0 110-2h3v-3a1 1 0 011-1z" fill="#570"/>
</svg>
