<svg width="24" height="24" fill="none" xmlns="http://www.w3.org/2000/svg">
  <path d="M12 0C5.371 0 0 5.371 0 12s5.371 12 12 12 12-5.371 12-12S18.629 0 12 0zM7.448 17.129a.83.83 0 01-.721.41.8.8 0 01-.421-.116.83.83 0 01-.3-1.136l.819-1.362a.467.467 0 01.404-.23h.121c.594 0 1.01.357 1.13.703l-1.032 1.73zm6.935-2.677l-5.366.006H5.452a.828.828 0 01-.83-.866c.016-.45.409-.79.859-.79h2.584l3.064-5.215-.992-1.69c-.225-.387-.127-.895.253-1.137a.834.834 0 011.171.277l.531.905h.006l.53-.905A.835.835 0 0113.8 4.76c.38.242.479.75.254 1.136l-.992 1.69-.964 1.645-2.094 3.57v.007h3.086c.387 0 .871.207 1.068.542l.017.035c.173.294.271.496.271.79a.737.737 0 01-.063.277zm4.165.006h-1.454v.005l1.062 1.806a.847.847 0 01-.277 1.154.842.842 0 01-1.154-.289l-1.57-2.67-.974-1.662-1.258-2.152a2.053 2.053 0 01-.034-2.037c.248-.438.438-.553.438-.553l2.798 4.736h2.406c.45 0 .836.346.86.79a.84.84 0 01-.843.872z" fill="#fff"/>
</svg>
