<svg width="24" height="24" fill="none" xmlns="http://www.w3.org/2000/svg">
  <path d="M2.328.13c.712-.225 1.387-.156 2.045.197a5216.698 5216.698 0 008.78 4.704l.374.2 3.403 1.824c.06.032.12.066.169.094l.056.032-3.891 3.894L2.328.13zM.64 21.703c.049.55.247 1.034.602 1.428L12.357 12.01 1.233.874c-.414.47-.6 1.044-.6 1.697.002 4.704.002 9.407.002 14.111v4.801c0 .073 0 .147.006.22zM13.266 12.907L2.323 23.858c.725.25 1.399.159 2.052-.192 2.6-1.395 5.201-2.788 7.802-4.181l.153-.082 3.346-1.792h.002l1.493-.8-3.905-3.904zM18.334 7.826l-4.191 4.189.54.54c1.18 1.182 2.36 2.362 3.543 3.537.043.043.168.055.224.025.33-.175.66-.347.99-.52.92-.48 1.841-.962 2.736-1.488 1.598-.94 1.585-3.307-.021-4.238-.869-.504-1.758-.97-2.648-1.438-.384-.2-.768-.402-1.15-.606-.013-.007-.033-.001-.023-.001z" fill="#fff"/>
</svg>
